<svg width="65" height="200" viewBox="0 0 65 200" fill="none" xmlns="http://www.w3.org/2000/svg">
<g clip-path="url(#clip0_370726_783)">
<path d="M37.1779 31.7843C36.3343 31.7843 35.6442 32.4489 35.6442 33.2925C35.6442 34.136 36.3343 34.8262 37.1523 34.8262C37.9959 34.8262 38.6605 34.136 38.6605 33.318C38.6861 32.4489 38.0215 31.7843 37.1779 31.7843ZM37.1779 34.0594C36.7433 34.0594 36.411 33.727 36.411 33.2925C36.411 32.8579 36.7433 32.5256 37.1779 32.5256C37.6125 32.5256 37.9448 32.8835 37.9448 33.2925C37.9448 33.727 37.5869 34.0594 37.1779 34.0594Z" fill="#999999"/>
<path d="M27.7965 29.5859C25.7771 29.5603 24.0133 31.2474 24.0644 33.3946C24.09 35.3885 25.7516 37.1012 27.8477 37.0756C29.8927 37.0501 31.5542 35.3885 31.5542 33.3435C31.5542 31.273 29.8927 29.5859 27.7965 29.5859ZM27.8477 35.6186C26.4929 35.6697 25.3937 34.5961 25.3937 33.2924C25.3937 31.9632 26.4929 30.9407 27.7199 30.9662C28.998 30.9662 30.046 31.9887 30.046 33.2924C30.0716 34.5961 29.0491 35.5674 27.8477 35.6186Z" fill="#999999"/>
<path d="M32.5 20C25.5982 20 20 25.5982 20 32.5C20 39.4018 25.5982 45 32.5 45C39.4018 45 45 39.4018 45 32.5C45 25.5982 39.4018 20 32.5 20ZM39.683 37.3568C38.9161 37.8425 38.0726 38.0726 37.1779 38.0726C36.7945 38.0726 36.411 38.0215 36.0532 37.9192C35.1585 37.6891 34.3916 37.229 33.7525 36.5644C33.6759 36.4877 33.5992 36.3855 33.4969 36.2832C33.1646 36.7945 32.8323 37.2801 32.5 37.7914C32.1677 37.2801 31.8354 36.7945 31.5031 36.3088C31.4775 36.3088 31.4775 36.3343 31.4775 36.3343L31.4519 36.3599C30.6851 37.2801 29.7137 37.817 28.5378 38.0215C27.8732 38.1237 27.2341 38.0981 26.5951 37.9192C25.7004 37.6636 24.9335 37.2035 24.2945 36.4877C23.681 35.7975 23.3231 35.0051 23.1697 34.0849C23.0164 33.2413 23.1953 32.4233 23.2464 32.2188C23.3998 31.6309 23.6299 31.1196 23.9877 30.6339C24.0133 30.6084 24.0133 30.5317 24.0133 30.5061C23.8855 29.9949 23.6299 29.5348 23.3487 29.0746C23.272 28.9724 23.1953 28.8701 23.1186 28.7423V28.7168C23.1442 28.7168 23.1442 28.7168 23.1697 28.7168C24.1155 28.7168 25.0613 28.7168 26.0072 28.7168C26.0583 28.7168 26.0838 28.6912 26.135 28.6656C26.7996 28.2311 27.5153 27.8988 28.2566 27.6431C28.7934 27.4642 29.3303 27.3108 29.8926 27.2086C30.4294 27.1063 30.9662 27.0296 31.5286 27.0041C32.8579 26.9018 33.9315 27.0296 34.6472 27.1319C35.184 27.2086 35.6953 27.3364 36.2065 27.4898C37.1012 27.771 37.9192 28.1544 38.7116 28.6401C38.7628 28.6656 38.8394 28.6912 38.9161 28.6912C39.8364 28.6912 40.7566 28.6912 41.6769 28.6912C41.7536 28.6912 41.8302 28.6912 41.9069 28.6912C41.9069 28.7168 41.9069 28.7168 41.9069 28.7168C41.8558 28.7934 41.8302 28.8446 41.7791 28.9213C41.4724 29.4069 41.1912 29.8926 41.0378 30.455C41.0122 30.5061 41.0122 30.5572 41.0634 30.6339C41.8814 31.8098 42.137 33.1135 41.8047 34.5194C41.4468 35.7208 40.7566 36.6667 39.683 37.3568Z" fill="#999999"/>
<path d="M27.7198 31.7843C26.9019 31.7843 26.2117 32.4745 26.2117 33.2925C26.2117 34.136 26.9019 34.8007 27.7454 34.8007C28.5634 34.8007 29.2536 34.1105 29.2536 33.2669C29.2536 32.4489 28.589 31.7843 27.7198 31.7843ZM27.7454 34.0849C27.3109 34.0849 26.953 33.7526 26.953 33.2925C26.953 32.8579 27.2853 32.5256 27.7198 32.5256C28.1544 32.5256 28.4867 32.8579 28.5123 33.2925C28.5378 33.727 28.18 34.0594 27.7454 34.0849Z" fill="#999999"/>
<path d="M37.1011 29.6116C35.0562 29.6628 33.4457 31.2988 33.4202 33.3437C33.4202 35.4143 35.1073 37.127 37.1778 37.1014C39.2484 37.1014 40.9355 35.4399 40.9355 33.3437C40.9355 31.1965 39.1717 29.5605 37.1011 29.6116ZM37.2801 35.6188C35.9253 35.6699 34.8517 34.5963 34.8517 33.2926C34.8517 31.9634 35.9508 30.9409 37.1778 30.9664C38.4559 30.9664 39.504 31.9889 39.504 33.2926C39.504 34.5707 38.4815 35.5677 37.2801 35.6188Z" fill="#999999"/>
<path d="M33.9826 29.8672C34.8006 29.1004 35.7975 28.7169 36.9223 28.6147C35.593 28.0267 34.1871 27.7711 32.7301 27.7456C31.0941 27.72 29.4836 27.95 27.9755 28.5891C29.1258 28.6658 30.1227 29.0492 30.9663 29.8161C31.8098 30.583 32.2955 31.5543 32.4744 32.6791C32.6789 31.5799 33.1646 30.6341 33.9826 29.8672Z" fill="#999999"/>
</g>
<g clip-path="url(#clip1_370726_783)">
<path d="M37.1779 76.7843C36.3343 76.7843 35.6442 77.4489 35.6442 78.2925C35.6442 79.136 36.3343 79.8262 37.1523 79.8262C37.9959 79.8262 38.6605 79.136 38.6605 78.318C38.6861 77.4489 38.0215 76.7843 37.1779 76.7843ZM37.1779 79.0594C36.7433 79.0594 36.411 78.727 36.411 78.2925C36.411 77.8579 36.7433 77.5256 37.1779 77.5256C37.6125 77.5256 37.9448 77.8835 37.9448 78.2925C37.9448 78.727 37.5869 79.0594 37.1779 79.0594Z" fill="#CC9933"/>
<path d="M27.7965 74.5859C25.7771 74.5603 24.0133 76.2474 24.0644 78.3946C24.09 80.3885 25.7516 82.1012 27.8477 82.0756C29.8927 82.0501 31.5542 80.3885 31.5542 78.3435C31.5542 76.273 29.8927 74.5859 27.7965 74.5859ZM27.8477 80.6186C26.4929 80.6697 25.3937 79.5961 25.3937 78.2924C25.3937 76.9632 26.4929 75.9407 27.7199 75.9662C28.998 75.9662 30.046 76.9887 30.046 78.2924C30.0716 79.5961 29.0491 80.5674 27.8477 80.6186Z" fill="#CC9933"/>
<path d="M32.5 65C25.5982 65 20 70.5982 20 77.5C20 84.4018 25.5982 90 32.5 90C39.4018 90 45 84.4018 45 77.5C45 70.5982 39.4018 65 32.5 65ZM39.683 82.3568C38.9161 82.8425 38.0726 83.0726 37.1779 83.0726C36.7945 83.0726 36.411 83.0215 36.0532 82.9192C35.1585 82.6891 34.3916 82.229 33.7525 81.5644C33.6759 81.4877 33.5992 81.3855 33.4969 81.2832C33.1646 81.7945 32.8323 82.2801 32.5 82.7914C32.1677 82.2801 31.8354 81.7945 31.5031 81.3088C31.4775 81.3088 31.4775 81.3343 31.4775 81.3343L31.4519 81.3599C30.6851 82.2801 29.7137 82.817 28.5378 83.0215C27.8732 83.1237 27.2341 83.0981 26.5951 82.9192C25.7004 82.6636 24.9335 82.2035 24.2945 81.4877C23.681 80.7975 23.3231 80.0051 23.1697 79.0849C23.0164 78.2413 23.1953 77.4233 23.2464 77.2188C23.3998 76.6309 23.6299 76.1196 23.9877 75.6339C24.0133 75.6084 24.0133 75.5317 24.0133 75.5061C23.8855 74.9949 23.6299 74.5348 23.3487 74.0746C23.272 73.9724 23.1953 73.8701 23.1186 73.7423V73.7168C23.1442 73.7168 23.1442 73.7168 23.1697 73.7168C24.1155 73.7168 25.0613 73.7168 26.0072 73.7168C26.0583 73.7168 26.0838 73.6912 26.135 73.6656C26.7996 73.2311 27.5153 72.8988 28.2566 72.6431C28.7934 72.4642 29.3303 72.3108 29.8926 72.2086C30.4294 72.1063 30.9662 72.0296 31.5286 72.0041C32.8579 71.9018 33.9315 72.0296 34.6472 72.1319C35.184 72.2086 35.6953 72.3364 36.2065 72.4898C37.1012 72.771 37.9192 73.1544 38.7116 73.6401C38.7628 73.6656 38.8394 73.6912 38.9161 73.6912C39.8364 73.6912 40.7566 73.6912 41.6769 73.6912C41.7536 73.6912 41.8302 73.6912 41.9069 73.6912C41.9069 73.7168 41.9069 73.7168 41.9069 73.7168C41.8558 73.7934 41.8302 73.8446 41.7791 73.9213C41.4724 74.4069 41.1912 74.8926 41.0378 75.455C41.0122 75.5061 41.0122 75.5572 41.0634 75.6339C41.8814 76.8098 42.137 78.1135 41.8047 79.5194C41.4468 80.7208 40.7566 81.6667 39.683 82.3568Z" fill="#CC9933"/>
<path d="M27.7198 76.7843C26.9019 76.7843 26.2117 77.4745 26.2117 78.2925C26.2117 79.136 26.9019 79.8007 27.7454 79.8007C28.5634 79.8007 29.2536 79.1105 29.2536 78.2669C29.2536 77.4489 28.589 76.7843 27.7198 76.7843ZM27.7454 79.0849C27.3109 79.0849 26.953 78.7526 26.953 78.2925C26.953 77.8579 27.2853 77.5256 27.7198 77.5256C28.1544 77.5256 28.4867 77.8579 28.5123 78.2925C28.5378 78.727 28.18 79.0594 27.7454 79.0849Z" fill="#CC9933"/>
<path d="M37.1011 74.6116C35.0562 74.6628 33.4457 76.2988 33.4202 78.3437C33.4202 80.4143 35.1073 82.127 37.1778 82.1014C39.2484 82.1014 40.9355 80.4399 40.9355 78.3437C40.9355 76.1965 39.1717 74.5605 37.1011 74.6116ZM37.2801 80.6188C35.9253 80.6699 34.8517 79.5963 34.8517 78.2926C34.8517 76.9634 35.9508 75.9409 37.1778 75.9664C38.4559 75.9664 39.504 76.9889 39.504 78.2926C39.504 79.5707 38.4815 80.5677 37.2801 80.6188Z" fill="#CC9933"/>
<path d="M33.9826 74.8672C34.8006 74.1004 35.7975 73.7169 36.9223 73.6147C35.593 73.0267 34.1871 72.7711 32.7301 72.7456C31.0941 72.72 29.4836 72.95 27.9755 73.5891C29.1258 73.6658 30.1227 74.0492 30.9663 74.8161C31.8098 75.583 32.2955 76.5543 32.4744 77.6791C32.6789 76.5799 33.1646 75.6341 33.9826 74.8672Z" fill="#CC9933"/>
</g>
<g clip-path="url(#clip2_370726_783)">
<path d="M37.1779 121.784C36.3343 121.784 35.6442 122.449 35.6442 123.292C35.6442 124.136 36.3343 124.826 37.1523 124.826C37.9959 124.826 38.6605 124.136 38.6605 123.318C38.6861 122.449 38.0215 121.784 37.1779 121.784ZM37.1779 124.059C36.7433 124.059 36.411 123.727 36.411 123.292C36.411 122.858 36.7433 122.526 37.1779 122.526C37.6125 122.526 37.9448 122.883 37.9448 123.292C37.9448 123.727 37.5869 124.059 37.1779 124.059Z" fill="#CC9933"/>
<path d="M27.7965 119.586C25.7771 119.56 24.0133 121.247 24.0644 123.395C24.09 125.389 25.7516 127.101 27.8477 127.076C29.8927 127.05 31.5542 125.389 31.5542 123.344C31.5542 121.273 29.8927 119.586 27.7965 119.586ZM27.8477 125.619C26.4929 125.67 25.3937 124.596 25.3937 123.292C25.3937 121.963 26.4929 120.941 27.7199 120.966C28.998 120.966 30.046 121.989 30.046 123.292C30.0716 124.596 29.0491 125.567 27.8477 125.619Z" fill="#CC9933"/>
<path d="M32.5 110C25.5982 110 20 115.598 20 122.5C20 129.402 25.5982 135 32.5 135C39.4018 135 45 129.402 45 122.5C45 115.598 39.4018 110 32.5 110ZM39.683 127.357C38.9161 127.843 38.0726 128.073 37.1779 128.073C36.7945 128.073 36.411 128.021 36.0532 127.919C35.1585 127.689 34.3916 127.229 33.7525 126.564C33.6759 126.488 33.5992 126.385 33.4969 126.283C33.1646 126.794 32.8323 127.28 32.5 127.791C32.1677 127.28 31.8354 126.794 31.5031 126.309C31.4775 126.309 31.4775 126.334 31.4775 126.334L31.4519 126.36C30.6851 127.28 29.7137 127.817 28.5378 128.021C27.8732 128.124 27.2341 128.098 26.5951 127.919C25.7004 127.664 24.9335 127.203 24.2945 126.488C23.681 125.798 23.3231 125.005 23.1697 124.085C23.0164 123.241 23.1953 122.423 23.2464 122.219C23.3998 121.631 23.6299 121.12 23.9877 120.634C24.0133 120.608 24.0133 120.532 24.0133 120.506C23.8855 119.995 23.6299 119.535 23.3487 119.075C23.272 118.972 23.1953 118.87 23.1186 118.742V118.717C23.1442 118.717 23.1442 118.717 23.1697 118.717C24.1155 118.717 25.0613 118.717 26.0072 118.717C26.0583 118.717 26.0838 118.691 26.135 118.666C26.7996 118.231 27.5153 117.899 28.2566 117.643C28.7934 117.464 29.3303 117.311 29.8926 117.209C30.4294 117.106 30.9662 117.03 31.5286 117.004C32.8579 116.902 33.9315 117.03 34.6472 117.132C35.184 117.209 35.6953 117.336 36.2065 117.49C37.1012 117.771 37.9192 118.154 38.7116 118.64C38.7628 118.666 38.8394 118.691 38.9161 118.691C39.8364 118.691 40.7566 118.691 41.6769 118.691C41.7536 118.691 41.8302 118.691 41.9069 118.691C41.9069 118.717 41.9069 118.717 41.9069 118.717C41.8558 118.793 41.8302 118.845 41.7791 118.921C41.4724 119.407 41.1912 119.893 41.0378 120.455C41.0122 120.506 41.0122 120.557 41.0634 120.634C41.8814 121.81 42.137 123.113 41.8047 124.519C41.4468 125.721 40.7566 126.667 39.683 127.357Z" fill="#CC9933"/>
<path d="M27.7198 121.784C26.9019 121.784 26.2117 122.474 26.2117 123.292C26.2117 124.136 26.9019 124.801 27.7454 124.801C28.5634 124.801 29.2536 124.11 29.2536 123.267C29.2536 122.449 28.589 121.784 27.7198 121.784ZM27.7454 124.085C27.3109 124.085 26.953 123.753 26.953 123.292C26.953 122.858 27.2853 122.526 27.7198 122.526C28.1544 122.526 28.4867 122.858 28.5123 123.292C28.5378 123.727 28.18 124.059 27.7454 124.085Z" fill="#CC9933"/>
<path d="M37.1011 119.612C35.0562 119.663 33.4457 121.299 33.4202 123.344C33.4202 125.414 35.1073 127.127 37.1778 127.101C39.2484 127.101 40.9355 125.44 40.9355 123.344C40.9355 121.197 39.1717 119.561 37.1011 119.612ZM37.2801 125.619C35.9253 125.67 34.8517 124.596 34.8517 123.293C34.8517 121.963 35.9508 120.941 37.1778 120.966C38.4559 120.966 39.504 121.989 39.504 123.293C39.504 124.571 38.4815 125.568 37.2801 125.619Z" fill="#CC9933"/>
<path d="M33.9826 119.867C34.8006 119.1 35.7975 118.717 36.9223 118.615C35.593 118.027 34.1871 117.771 32.7301 117.746C31.0941 117.72 29.4836 117.95 27.9755 118.589C29.1258 118.666 30.1227 119.049 30.9663 119.816C31.8098 120.583 32.2955 121.554 32.4744 122.679C32.6789 121.58 33.1646 120.634 33.9826 119.867Z" fill="#CC9933"/>
</g>
<g clip-path="url(#clip3_370726_783)">
<path d="M37.1779 166.784C36.3343 166.784 35.6442 167.449 35.6442 168.292C35.6442 169.136 36.3343 169.826 37.1523 169.826C37.9959 169.826 38.6605 169.136 38.6605 168.318C38.6861 167.449 38.0215 166.784 37.1779 166.784ZM37.1779 169.059C36.7433 169.059 36.411 168.727 36.411 168.292C36.411 167.858 36.7433 167.525 37.1779 167.525C37.6125 167.525 37.9448 167.883 37.9448 168.292C37.9448 168.727 37.5869 169.059 37.1779 169.059Z" fill="#A47312"/>
<path d="M27.7965 164.586C25.7771 164.56 24.0133 166.247 24.0644 168.395C24.09 170.388 25.7516 172.101 27.8477 172.076C29.8927 172.05 31.5542 170.388 31.5542 168.343C31.5542 166.273 29.8927 164.586 27.7965 164.586ZM27.8477 170.618C26.4929 170.67 25.3937 169.596 25.3937 168.292C25.3937 166.963 26.4929 165.941 27.7199 165.966C28.998 165.966 30.046 166.989 30.046 168.292C30.0716 169.596 29.0491 170.567 27.8477 170.618Z" fill="#A47312"/>
<path d="M32.5 155C25.5982 155 20 160.598 20 167.5C20 174.402 25.5982 180 32.5 180C39.4018 180 45 174.402 45 167.5C45 160.598 39.4018 155 32.5 155ZM39.683 172.357C38.9161 172.842 38.0726 173.072 37.1779 173.072C36.7945 173.072 36.411 173.021 36.0532 172.919C35.1585 172.689 34.3916 172.229 33.7525 171.564C33.6759 171.488 33.5992 171.385 33.4969 171.283C33.1646 171.794 32.8323 172.28 32.5 172.791C32.1677 172.28 31.8354 171.794 31.5031 171.309C31.4775 171.309 31.4775 171.334 31.4775 171.334L31.4519 171.36C30.6851 172.28 29.7137 172.817 28.5378 173.021C27.8732 173.124 27.2341 173.098 26.5951 172.919C25.7004 172.663 24.9335 172.203 24.2945 171.488C23.681 170.797 23.3231 170.005 23.1697 169.085C23.0164 168.241 23.1953 167.423 23.2464 167.219C23.3998 166.631 23.6299 166.119 23.9877 165.634C24.0133 165.608 24.0133 165.532 24.0133 165.506C23.8855 164.995 23.6299 164.535 23.3487 164.075C23.272 163.972 23.1953 163.87 23.1186 163.742V163.717C23.1442 163.717 23.1442 163.717 23.1697 163.717C24.1155 163.717 25.0613 163.717 26.0072 163.717C26.0583 163.717 26.0838 163.691 26.135 163.666C26.7996 163.231 27.5153 162.899 28.2566 162.643C28.7934 162.464 29.3303 162.311 29.8926 162.208C30.4294 162.106 30.9662 162.03 31.5286 162.004C32.8579 161.902 33.9315 162.03 34.6472 162.132C35.184 162.208 35.6953 162.336 36.2065 162.49C37.1012 162.771 37.9192 163.154 38.7116 163.64C38.7628 163.666 38.8394 163.691 38.9161 163.691C39.8364 163.691 40.7566 163.691 41.6769 163.691C41.7536 163.691 41.8302 163.691 41.9069 163.691C41.9069 163.717 41.9069 163.717 41.9069 163.717C41.8558 163.793 41.8302 163.844 41.7791 163.921C41.4724 164.407 41.1912 164.893 41.0378 165.455C41.0122 165.506 41.0122 165.557 41.0634 165.634C41.8814 166.81 42.137 168.113 41.8047 169.519C41.4468 170.721 40.7566 171.667 39.683 172.357Z" fill="#A47312"/>
<path d="M27.7198 166.784C26.9019 166.784 26.2117 167.474 26.2117 168.292C26.2117 169.136 26.9019 169.801 27.7454 169.801C28.5634 169.801 29.2536 169.11 29.2536 168.267C29.2536 167.449 28.589 166.784 27.7198 166.784ZM27.7454 169.085C27.3109 169.085 26.953 168.752 26.953 168.292C26.953 167.858 27.2853 167.525 27.7198 167.525C28.1544 167.525 28.4867 167.858 28.5123 168.292C28.5378 168.727 28.18 169.059 27.7454 169.085Z" fill="#A47312"/>
<path d="M37.1011 164.612C35.0562 164.663 33.4457 166.299 33.4202 168.344C33.4202 170.414 35.1073 172.127 37.1778 172.101C39.2484 172.101 40.9355 170.44 40.9355 168.344C40.9355 166.196 39.1717 164.56 37.1011 164.612ZM37.2801 170.619C35.9253 170.67 34.8517 169.596 34.8517 168.292C34.8517 166.963 35.9508 165.941 37.1778 165.966C38.4559 165.966 39.504 166.989 39.504 168.292C39.504 169.571 38.4815 170.568 37.2801 170.619Z" fill="#A47312"/>
<path d="M33.9826 164.867C34.8006 164.1 35.7975 163.717 36.9223 163.615C35.593 163.027 34.1871 162.771 32.7301 162.745C31.0941 162.72 29.4836 162.95 27.9755 163.589C29.1258 163.666 30.1227 164.049 30.9663 164.816C31.8098 165.583 32.2955 166.554 32.4744 167.679C32.6789 166.58 33.1646 165.634 33.9826 164.867Z" fill="#A47312"/>
</g>
<rect x="0.5" y="0.5" width="64" height="199" rx="4.5" stroke="#999999" stroke-dasharray="10 5"/>
<defs>
<clipPath id="clip0_370726_783">
<rect width="25" height="25" fill="white" transform="translate(20 20)"/>
</clipPath>
<clipPath id="clip1_370726_783">
<rect width="25" height="25" fill="white" transform="translate(20 65)"/>
</clipPath>
<clipPath id="clip2_370726_783">
<rect width="25" height="25" fill="white" transform="translate(20 110)"/>
</clipPath>
<clipPath id="clip3_370726_783">
<rect width="25" height="25" fill="white" transform="translate(20 155)"/>
</clipPath>
</defs>
</svg>
